<svg id="Layer_1" height="512" viewBox="0 0 512 512" width="512" xmlns="http://www.w3.org/2000/svg" data-name="Layer 1"><path d="m68 449.77v-358.82a30.187 30.187 0 0 1 29.3-29.926l-29.03-.024a30.2 30.2 0 0 0 -30.27 29.95v358.82a30.44 30.44 0 0 0 30.27 30.23h30a30.44 30.44 0 0 1 -30.27-30.23z" fill="#d4e1f4"/><path d="m417.21 387.612-41.522 41.523-19.825-19.823a6 6 0 0 0 -8.485 8.485l24.067 24.066a6 6 0 0 0 8.485 0l45.77-45.763a6 6 0 0 0 -8.486-8.486z" fill="#1ae5be"/><g fill="#0635c9"><path d="m409.869 62.387-62.688-54.561a10.468 10.468 0 0 0 -6.863-2.573l-212.065-.253a36.265 36.265 0 0 0 -36.253 35.982v14.018h-23.735a36.371 36.371 0 0 0 -36.265 36.265v358.506a36.335 36.335 0 0 0 36.229 36.229h247.636a35.909 35.909 0 0 0 13.464-2.729l-4.492-11.065a23.92 23.92 0 0 1 -8.976 1.794h-247.597a24.336 24.336 0 0 1 -24.264-24.264v-358.781a23.955 23.955 0 0 1 23.955-23.955h208.045v50.107a5.893 5.893 0 0 0 5.893 5.893h58.107v214h12v-220.118a6.068 6.068 0 0 0 -2.131-4.525l-62.913-54.757a9.677 9.677 0 0 0 -6.342-2.378l-176.614-.222v-14.016a23.984 23.984 0 0 1 23.984-23.984h208.016v50.136a5.863 5.863 0 0 0 5.864 5.864h58.136v255h12v-261.088a6.066 6.066 0 0 0 -2.131-4.525zm-121.869 11.793 42.09 36.82h-42.09zm60-13.18v-36.791l42.089 36.791z"/><path d="m138.557 182h72.156a6 6 0 0 0 0-12h-72.156a6 6 0 0 0 0 12z"/><path d="m94.677 160.82a14.984 14.984 0 1 0 14.939 14.98 14.979 14.979 0 0 0 -14.939-14.98zm0 17.967a2.984 2.984 0 1 1 2.939-2.983 2.965 2.965 0 0 1 -2.939 2.983z"/><path d="m288.732 240h-150.175a6 6 0 0 0 0 12h150.175a6 6 0 0 0 0-12z"/><path d="m94.677 231.059a14.984 14.984 0 1 0 14.939 14.983 14.978 14.978 0 0 0 -14.939-14.983zm0 17.967a2.984 2.984 0 1 1 2.939-2.984 2.965 2.965 0 0 1 -2.939 2.984z"/><path d="m288.732 310h-150.175a6 6 0 0 0 0 12h150.175a6 6 0 0 0 0-12z"/><path d="m94.677 301.3a14.984 14.984 0 1 0 14.939 14.984 14.979 14.979 0 0 0 -14.939-14.984zm0 17.968a2.984 2.984 0 1 1 2.939-2.984 2.966 2.966 0 0 1 -2.939 2.982z"/><path d="m288.732 381h-150.175a6 6 0 0 0 0 12h150.175a6 6 0 0 0 0-12z"/><path d="m94.677 371.537a14.984 14.984 0 1 0 14.939 14.984 14.979 14.979 0 0 0 -14.939-14.984zm0 17.967a2.984 2.984 0 1 1 2.939-2.983 2.965 2.965 0 0 1 -2.939 2.979z"/><path d="m72 87.538a6 6 0 0 0 -12 0v4.3a6 6 0 0 0 12 0z"/><path d="m66 106.833a6 6 0 0 0 -6 6v76a6 6 0 0 0 12 0v-76a6 6 0 0 0 -6-6z"/></g><path d="m386.537 320.621a93.19 93.19 0 1 0 93.19 93.189 93.295 93.295 0 0 0 -93.19-93.189zm0 174.379a81.19 81.19 0 1 1 81.19-81.19 81.282 81.282 0 0 1 -81.19 81.19z" fill="#1ae5be"/></svg>